<svg xmlns="http://www.w3.org/2000/svg" width="25" height="25" fill="none" viewBox="0 0 25 25">
  <path
    stroke="#6D6E8F"
    stroke-linecap="round"
    stroke-linejoin="round"
    stroke-width="1.5"
    d="M12.907 6.343s.494-1.529 4.717-1.687a.654.654 0 0 1 .713.595v6.273a.651.651 0 0 1-.679.588c-4.251.151-4.751 1.688-4.751 1.688V6.343Zm0 0s-.493-1.529-4.716-1.687a.654.654 0 0 0-.713.595v6.273a.651.651 0 0 0 .679.588c4.25.151 4.75 1.688 4.75 1.688V6.343Z"
  />
  <path
    stroke="#6D6E8F"
    stroke-linecap="round"
    stroke-linejoin="round"
    stroke-width="1.5"
    d="M22.202 1.317h-18.5a2 2 0 0 0-2 2v18.5a2 2 0 0 0 2 2h18.5a2 2 0 0 0 2-2v-18.5a2 2 0 0 0-2-2Zm-20.5 15.5h22.5m-18.5 3.5h14.5m-11.5-1v2"
  />
</svg>
