<svg xmlns="http://www.w3.org/2000/svg" width="25" height="25" fill="none" viewBox="0 0 25 25">
  <path stroke="#6D6E8F" stroke-linecap="round" stroke-linejoin="round" stroke-width="1.5" d="M22 5.5V1h-4.5" />
  <path
    stroke="#6D6E8F"
    stroke-linecap="round"
    stroke-linejoin="round"
    stroke-width="1.5"
    d="m22 1-5.05 5.05a2.24 2.24 0 0 1-2.24.56L9 5.09a2.24 2.24 0 0 0-2.17.58L1 11.5m0 12h22.5M6.25 17h-3a.76.76 0 0 0-.75.75v5.75H7v-5.75a.76.76 0 0 0-.75-.75Zm7.5-6.5h-3a.76.76 0 0 0-.75.75V23.5h4.5V11.25a.76.76 0 0 0-.75-.75Zm7.5 3.5h-3a.76.76 0 0 0-.75.75v8.75H22v-8.75a.76.76 0 0 0-.75-.75Z"
  />
</svg>
