<svg xmlns="http://www.w3.org/2000/svg" width="25" height="25" fill="none" viewBox="0 0 25 25">
  <g clip-path="url(#a)">
    <path
      stroke="#6D6E8F"
      stroke-linecap="round"
      stroke-linejoin="round"
      stroke-width="1.5"
      d="m7.3 5.413-4.01 4.01m11.44-2.81-4.67-1.24m10.75-2.19-3.58 2.8m-8.56.31a1.5 1.5 0 1 0 0-3 1.5 1.5 0 0 0 0 3Zm13.5-2.25a1.5 1.5 0 1 0 0-3 1.5 1.5 0 0 0 0 3Zm-6 4.5a1.5 1.5 0 1 0 0-3 1.5 1.5 0 0 0 0 3Zm-13.5 3.75a1.5 1.5 0 1 0 0-3 1.5 1.5 0 0 0 0 3Zm-1.5 11.25h22.5m-17.25-5.5h-3a.76.76 0 0 0-.75.75v4.75h4.5v-4.75a.75.75 0 0 0-.75-.75Zm7.5-7h-3a.76.76 0 0 0-.75.75v11.75h4.5v-11.75a.75.75 0 0 0-.75-.75Zm7.5 4h-3a.76.76 0 0 0-.75.75v7.75h4.5v-7.75a.75.75 0 0 0-.75-.75Z"
    />
  </g>
  <defs>
    <clipPath id="a">
      <path fill="#fff" d="M0 0h25v25H0z" />
    </clipPath>
  </defs>
</svg>
