<svg xmlns="http://www.w3.org/2000/svg" width="25" height="24" fill="none" viewBox="0 0 25 24">
  <path
    stroke="#6D6E8F"
    stroke-linecap="round"
    stroke-linejoin="round"
    stroke-width="1.5"
    d="M22 10v9.5a3 3 0 0 1-3 3H5.5a3 3 0 0 1-3-3V10M22 2H2.5A1.5 1.5 0 0 0 1 3.5v3h22.5v-3A1.5 1.5 0 0 0 22 2Z"
  />
  <path
    stroke="#6D6E8F"
    stroke-linecap="round"
    stroke-linejoin="round"
    stroke-width="1.5"
    d="M14.25 10.5h-4a1.5 1.5 0 0 0-1.5 1.5v1a1.5 1.5 0 0 0 1.5 1.5h4a1.5 1.5 0 0 0 1.5-1.5v-1a1.5 1.5 0 0 0-1.5-1.5Z"
  />
</svg>
