<svg xmlns="http://www.w3.org/2000/svg" width="24" height="25" fill="none" viewBox="0 0 24 25">
  <path
    stroke="#6D6E8F"
    stroke-linecap="round"
    stroke-linejoin="round"
    stroke-width="1.5"
    d="M6.5 16.329a1.5 1.5 0 1 0 3 0 1.5 1.5 0 0 0-3 0Zm7.5-1.5a1.5 1.5 0 1 0 3 0 1.5 1.5 0 0 0-3 0Z"
  />
  <path
    stroke="#6D6E8F"
    stroke-linecap="round"
    stroke-linejoin="round"
    stroke-width="1.5"
    d="M17 14.829V9.25a1.5 1.5 0 0 0-1.864-1.455l-4.5.75A1.5 1.5 0 0 0 9.5 10v6.329"
  />
  <path
    stroke="#6D6E8F"
    stroke-linecap="round"
    stroke-linejoin="round"
    stroke-width="1.5"
    d="M23 22a1.5 1.5 0 0 1-1.5 1.5h-18A1.5 1.5 0 0 1 2 22V2.5A1.5 1.5 0 0 1 3.5 1h15a1.5 1.5 0 0 1 1.047.426l3 2.883A1.5 1.5 0 0 1 23 5.383V22Z"
  />
</svg>
