<svg xmlns="http://www.w3.org/2000/svg" width="24" height="24" fill="none" viewBox="0 0 24 24">
  <g clip-path="url(#a)">
    <path
      stroke="#6D6E8F"
      stroke-linecap="round"
      stroke-linejoin="round"
      stroke-width="1.5"
      d="M3.75 14.298a8.25 8.25 0 1 0 16.5 0 8.25 8.25 0 0 0-16.5 0Zm.908-3.75h14.684m-7.342 0v12"
    />
    <path
      stroke="#6D6E8F"
      stroke-linecap="round"
      stroke-linejoin="round"
      stroke-width="1.5"
      d="M4.292 11.351a5.225 5.225 0 0 0-2.792-.8m0 10.497a5.24 5.24 0 0 0 3.926-1.765M1.5 15.048h2.285m15.923-3.697a5.225 5.225 0 0 1 2.792-.8m0 10.497a5.24 5.24 0 0 1-3.926-1.765m3.926-4.235h-2.285M5.96 1.5c0 2.937.228 4.027 2.687 5.258M17.96 1.5c0 2.937-.228 4.027-2.687 5.258"
    />
  </g>
  <defs>
    <clipPath id="a">
      <path fill="#fff" d="M0 0h24v24H0z" />
    </clipPath>
  </defs>
</svg>
