<svg xmlns="http://www.w3.org/2000/svg" width="24" height="24" fill="none" viewBox="0 0 24 24">
  <g clip-path="url(#a)">
    <path
      stroke="#6D6E8F"
      stroke-linecap="round"
      stroke-linejoin="round"
      stroke-width="1.5"
      d="M21.75 3.75H2.25a1.5 1.5 0 0 0-1.5 1.5v16.5a1.5 1.5 0 0 0 1.5 1.5h19.5a1.5 1.5 0 0 0 1.5-1.5V5.25a1.5 1.5 0 0 0-1.5-1.5ZM6.75 6V.75M17.25 6V.75"
    />
    <path
      stroke="#6D6E8F"
      stroke-linecap="round"
      stroke-linejoin="round"
      stroke-width="1.5"
      d="M9.75 14.25h-4.5v4.5h4.5v-4.5Zm4.5-4.5v9m4.5-9h-9v9h9v-9Zm-9 4.5h9"
    />
  </g>
  <defs>
    <clipPath id="a">
      <path fill="#fff" d="M0 0h24v24H0z" />
    </clipPath>
  </defs>
</svg>
