<svg xmlns="http://www.w3.org/2000/svg" width="25" height="25" fill="none" viewBox="0 0 25 25">
  <path
    stroke="#6D6E8F"
    stroke-linecap="round"
    stroke-linejoin="round"
    stroke-width="1.5"
    d="M8.646 18.366c-1.937-.644-3.959-1-6-1.06a1.49 1.49 0 0 1-1.41-1.5V2.446a1.5 1.5 0 0 1 1.59-1.5c6.33.33 9.65 2.59 9.65 4.31 0-1.71 3.72-3.95 9.64-4.3a1.49 1.49 0 0 1 1.61 1.5v12.6m-11.25-9.801v3.89"
  />
  <path
    stroke="#6D6E8F"
    stroke-linecap="round"
    stroke-linejoin="round"
    stroke-width="1.5"
    d="M9.816 6.695a24.16 24.16 0 0 0-5.57-1.3m15.641 3.97c.35-.06.7-.11 1.07-.15m-11.141 1.29a24.94 24.94 0 0 0-5.57-1.29m5.57 5.341a25.218 25.218 0 0 0-5.62-1.31m11.181-6.541c1.82-.65 3.709-1.09 5.63-1.31m2.609 18 .1-1.12a3 3 0 0 0-2.34-3.2l-3.65-.81v-5.74a1.88 1.88 0 1 0-3.75 0v9.2l-1.5-1.11a1.53 1.53 0 0 0-2.14 2.15l.47.63"
  />
</svg>
