<svg xmlns="http://www.w3.org/2000/svg" width="25" height="25" fill="none" viewBox="0 0 25 25">
  <path
    stroke="#6D6E8F"
    stroke-linecap="round"
    stroke-linejoin="round"
    stroke-width="1.5"
    d="M8.5 16.74a5.211 5.211 0 0 1 2.9-9.97"
  />
  <path
    stroke="#6D6E8F"
    stroke-linecap="round"
    stroke-linejoin="round"
    stroke-width="1.5"
    d="M8.461 21.057a9.377 9.377 0 0 1 3.4-18.438m-1.871 9.49 4.166-4.167m0 0 .568-3.75L17.972 1l.502 2.624 2.624.502-3.192 3.248-3.75.568ZM11.49 17.5a6 6 0 1 0 12 0 6 6 0 0 0-12 0Z"
  />
  <path
    stroke="#6D6E8F"
    stroke-linecap="round"
    stroke-linejoin="round"
    stroke-width="1.5"
    d="m20.163 15.755-2.905 3.874a.75.75 0 0 1-1.13.08l-1.5-1.5"
  />
</svg>
