<svg xmlns="http://www.w3.org/2000/svg" width="25" height="25" fill="none" viewBox="0 0 25 25">
  <path
    stroke="#6D6E8F"
    stroke-linecap="round"
    stroke-linejoin="round"
    stroke-width="1.5"
    d="M20.5 8.5v-3A1.5 1.5 0 0 0 19 4h-4M6.5 4h-4A1.5 1.5 0 0 0 1 5.5V22a1.5 1.5 0 0 0 1.5 1.5h6"
  />
  <path
    stroke="#6D6E8F"
    stroke-linecap="round"
    stroke-linejoin="round"
    stroke-width="1.5"
    d="M14.671 4.987a.75.75 0 0 1-.712.513H7.541a.751.751 0 0 1-.712-.513l-1-3A.75.75 0 0 1 6.541 1h8.418a.75.75 0 0 1 .712.987l-1 3ZM11.5 11.5h12v12h-12v-12Zm3 3h6m-6 3h6m-6 3h2.25"
  />
</svg>
