<svg xmlns="http://www.w3.org/2000/svg" width="24" height="25" fill="none" viewBox="0 0 24 25">
  <path
    stroke="#6D6E8F"
    stroke-linecap="round"
    stroke-linejoin="round"
    stroke-width="1.5"
    d="M21 23.5H5.25A2.25 2.25 0 0 1 3 21.25M12 2.5H6a3 3 0 0 0-3 3v15.75A2.25 2.25 0 0 1 5.25 19h15a.75.75 0 0 0 .75-.75v-15a.75.75 0 0 0-.75-.75H18m1.5 21V19"
  />
  <path
    stroke="#6D6E8F"
    stroke-linecap="round"
    stroke-linejoin="round"
    stroke-width="1.5"
    d="m18 13-3-3-3 3V2.5A1.5 1.5 0 0 1 13.5 1h3A1.5 1.5 0 0 1 18 2.5V13Z"
  />
</svg>
