<svg xmlns="http://www.w3.org/2000/svg" width="25" height="25" fill="none" viewBox="0 0 25 25">
  <path
    stroke="#6D6E8F"
    stroke-linecap="round"
    stroke-linejoin="round"
    stroke-width="1.5"
    d="M7 1H4a1.5 1.5 0 0 0-1.5 1.5v14.25a1.5 1.5 0 0 0 1.5 1.5h3a1.5 1.5 0 0 0 1.5-1.5V2.5A1.5 1.5 0 0 0 7 1Zm6 0h-3a1.5 1.5 0 0 0-1.5 1.5v14.25a1.5 1.5 0 0 0 1.5 1.5h3a1.5 1.5 0 0 0 1.5-1.5V2.5A1.5 1.5 0 0 0 13 1Zm5.22 1.448-1.484.216a1.5 1.5 0 0 0-1.269 1.7L17.3 16.98a1.5 1.5 0 0 0 1.7 1.27l1.485-.216a1.5 1.5 0 0 0 1.269-1.7L19.92 3.716a1.5 1.5 0 0 0-1.7-1.269Z"
  />
  <path
    stroke="#6D6E8F"
    stroke-linecap="round"
    stroke-linejoin="round"
    stroke-width="1.5"
    d="M1 19.75a1.5 1.5 0 0 0 1.5 1.5H22a1.5 1.5 0 1 0 0-3H2.5a1.5 1.5 0 0 0-1.5 1.5Zm2.25 1.5v2.25m18-2.25v2.25"
  />
</svg>
