<svg xmlns="http://www.w3.org/2000/svg" width="24" height="25" fill="none" viewBox="0 0 24 25">
  <path
    stroke="#6D6E8F"
    stroke-linecap="round"
    stroke-linejoin="round"
    stroke-width="1.5"
    d="M15.55 15.88c.3 3.86 6 1.21 5.56 2.54-2.52 7.48-12.64 5.69-17 1.17a10.9 10.9 0 0 1 .08-15.33c4.23-4.19 11.36-4.5 15.29 0 7.63 8.86-4.17 8.18-3.93 11.62Z"
  />
  <path
    stroke="#6D6E8F"
    stroke-linecap="round"
    stroke-linejoin="round"
    stroke-width="1.5"
    d="M6.74 15.09a1.52 1.52 0 1 0 0-3.04 1.52 1.52 0 0 0 0 3.04Zm3.76 4.83a1.52 1.52 0 1 0 0-3.04 1.52 1.52 0 0 0 0 3.04Zm3.64-12.23a1.52 1.52 0 1 0 0-3.04 1.52 1.52 0 0 0 0 3.04ZM7.69 9.3a1.52 1.52 0 1 0 0-3.04 1.52 1.52 0 0 0 0 3.04Z"
  />
</svg>
