<svg xmlns="http://www.w3.org/2000/svg" width="25" height="25" fill="none" viewBox="0 0 25 25">
  <path
    stroke="#6D6E8F"
    stroke-linecap="round"
    stroke-linejoin="round"
    stroke-width="1.5"
    d="M5.5 23.5h-3A1.5 1.5 0 0 1 1 22V2.5A1.5 1.5 0 0 1 2.5 1h10.629a1.5 1.5 0 0 1 1.06.439l5.872 5.871a1.499 1.499 0 0 1 .439 1.061V13"
  />
  <path
    stroke="#6D6E8F"
    stroke-linecap="round"
    stroke-linejoin="round"
    stroke-width="1.5"
    d="M20.5 8.5h-6A1.5 1.5 0 0 1 13 7V1m-1.5 15a3 3 0 0 0-3 3v1.5a3 3 0 0 0 3 3m6-7.5H16a1.5 1.5 0 0 0-1.5 1.5c0 2.25 3 2.25 3 4.5a1.5 1.5 0 0 1-1.5 1.5h-1.5m6-7.5v2.546c0 1.764.522 3.488 1.5 4.955a8.936 8.936 0 0 0 1.5-4.955V16"
  />
</svg>
