<svg xmlns="http://www.w3.org/2000/svg" width="25" height="25" fill="none" viewBox="0 0 25 25">
  <path
    stroke="#6D6E8F"
    stroke-linecap="round"
    stroke-linejoin="round"
    stroke-width="1.5"
    d="M15.25 23.5h-6L10 19h4.5l.75 4.5ZM7 23.5h10.5m3-22.5H4a3 3 0 0 0-3 3v12a3 3 0 0 0 3 3h16.5a3 3 0 0 0 3-3V4a3 3 0 0 0-3-3Z"
  />
  <path
    stroke="#6D6E8F"
    stroke-linecap="round"
    stroke-linejoin="round"
    stroke-width="1.5"
    d="m1 11 4-4a.75.75 0 0 1 1.06 0l1.91 1.97a.75.75 0 0 0 1.06 0l4-4M1 15h22.5m-9-6v2.75m6-2.75v2.75m-3-5v5"
  />
</svg>
