<svg xmlns="http://www.w3.org/2000/svg" width="24" height="24" fill="none" viewBox="0 0 24 24">
  <path
    stroke="#6D6E8F"
    stroke-linecap="round"
    stroke-linejoin="round"
    stroke-width="1.5"
    d="M5.5 19.997h9.921a1.5 1.5 0 0 0 1.48-1.249l2.637-15.5A1.5 1.5 0 0 1 21.017 2H22"
  />
  <path
    stroke="#6D6E8F"
    stroke-width="1.5"
    d="M7.375 22.997a.375.375 0 0 1 0-.75m0 .75a.375.375 0 0 0 0-.75m7.501.75a.375.375 0 0 1 0-.75m0 .75a.375.375 0 0 0 0-.75"
  />
  <path
    stroke="#6D6E8F"
    stroke-linecap="round"
    stroke-linejoin="round"
    stroke-width="1.5"
    d="M17.453 15.497H5.383a3 3 0 0 1-2.91-2.272l-1.45-5.8a.75.75 0 0 1 .727-.932h17.234M5.5 9.497v2.25m4.5-2.25v2.25m4.5-2.25v2.25"
  />
</svg>
