<svg xmlns="http://www.w3.org/2000/svg" width="25" height="25" fill="none" viewBox="0 0 25 25">
  <path
    stroke="#6D6E8F"
    stroke-linecap="round"
    stroke-linejoin="round"
    stroke-width="1.5"
    d="M22 1H2.5A1.5 1.5 0 0 0 1 2.5v15A1.5 1.5 0 0 0 2.5 19H22a1.5 1.5 0 0 0 1.5-1.5v-15A1.5 1.5 0 0 0 22 1Zm-6 22.5H8.5l.75-4.5h6l.75 4.5Zm-9.75 0h12M19 7.75V10"
  />
  <path
    stroke="#6D6E8F"
    stroke-linecap="round"
    stroke-linejoin="round"
    stroke-width="1.5"
    d="M16 9.084V13a5.684 5.684 0 0 1-3.743 1.5A5.745 5.745 0 0 1 8.5 13V9.084"
  />
  <path
    stroke="#6D6E8F"
    stroke-linecap="round"
    stroke-linejoin="round"
    stroke-width="1.5"
    d="m5.5 7.75 6.75 3 6.75-3-6.75-3-6.75 3Z"
  />
</svg>
