<svg xmlns="http://www.w3.org/2000/svg" width="24" height="24" fill="none" viewBox="0 0 24 24">
  <path
    fill="#6D6E8F"
    d="M20.41 23.63H4.53a2.18 2.18 0 0 1-2-1.37 2.12 2.12 0 0 1 .61-2.41l9-7.66a.25.25 0 0 0 .068-.296.23.23 0 0 0-.068-.084l-9-7.66a2.13 2.13 0 0 1-.61-2.41 2.16 2.16 0 0 1 2-1.37h15.88a1.25 1.25 0 1 1 0 2.5H6.13A.24.24 0 0 0 5.9 3a.25.25 0 0 0 .1.31l8.32 7.06a2.13 2.13 0 0 1 0 3.26L6 20.69a.25.25 0 0 0-.1.31.24.24 0 0 0 .23.16h14.28a1.25 1.25 0 0 1 0 2.5v-.03Z"
  />
</svg>
