<svg xmlns="http://www.w3.org/2000/svg" width="24" height="24" fill="none" viewBox="0 0 24 24">
  <g clip-path="url(#a)">
    <path
      fill="#6D6E8F"
      d="M14.71.42a1 1 0 0 0-1.42 0L7.68 6a.27.27 0 0 1-.36 0L1.71.42A1 1 0 1 0 .29 1.83l5.62 5.62a.24.24 0 0 1 0 .35L.29 13.42a1 1 0 1 0 1.42 1.41l5.61-5.61a.25.25 0 0 1 .36 0l5.61 5.61a1 1 0 1 0 1.42-1.41L9.09 7.8a.24.24 0 0 1 0-.35l5.62-5.62a1 1 0 0 0 0-1.41ZM23 21.87h-2.58a.241.241 0 0 1-.22-.14.23.23 0 0 1 0-.25L23.35 17a3.468 3.468 0 0 0-1.712-5.288 3.47 3.47 0 0 0-4.588 3.138 1 1 0 0 0 2 .08 1.46 1.46 0 0 1 1.47-1.4 1.49 1.49 0 0 1 1.32.78 1.47 1.47 0 0 1-.13 1.56L17.2 22.3a1 1 0 0 0-.07 1 1 1 0 0 0 .89.54H23a1 1 0 0 0 0-2v.03Z"
    />
  </g>
  <defs>
    <clipPath id="a">
      <path fill="#fff" d="M0 0h24v24H0z" />
    </clipPath>
  </defs>
</svg>
