<svg xmlns="http://www.w3.org/2000/svg" width="24" height="24" fill="none" viewBox="0 0 24 24">
  <g clip-path="url(#a)">
    <path
      fill="#6D6E8F"
      d="M22.5 21.25h-21a1.25 1.25 0 0 0 0 2.5h21a1.25 1.25 0 0 0 0-2.5ZM2 2.75h1.34a.25.25 0 0 1 .25.25v8.52a8.41 8.41 0 1 0 16.82 0V3a.25.25 0 0 1 .25-.25H22a1.25 1.25 0 0 0 0-2.5h-5.7a1.25 1.25 0 1 0 0 2.5h1.36a.25.25 0 0 1 .25.25v8.52a5.91 5.91 0 0 1-11.82 0V3a.25.25 0 0 1 .25-.25H7.7a1.25 1.25 0 0 0 0-2.5H2a1.25 1.25 0 1 0 0 2.5Z"
    />
  </g>
  <defs>
    <clipPath id="a">
      <path fill="#fff" d="M0 0h24v24H0z" />
    </clipPath>
  </defs>
</svg>
