<svg xmlns="http://www.w3.org/2000/svg" width="25" height="25" fill="none" viewBox="0 0 25 25">
  <path
    fill="#6D6E8F"
    d="M12.416 15.798a1 1 0 0 0-.55 1.3 1 1 0 0 1-.21 1.09l-2.83 2.83a2.002 2.002 0 0 1-2.83 0l-2.12-2.13a2 2 0 0 1 0-2.83l2.83-2.82a1 1 0 0 1 1.09-.21 1 1 0 1 0 .76-1.85 3 3 0 0 0-3.27.65l-2.83 2.83a4 4 0 0 0 0 5.65l2.13 2.13a4 4 0 0 0 5.65 0l2.83-2.83a3 3 0 0 0 .65-3.27 1 1 0 0 0-1.3-.54Z"
  />
  <path fill="#6D6E8F" d="M7.766 17.128a1 1 0 0 0 1.41 0l7.83-7.78a1 1 0 0 0-1.41-1.41l-7.83 7.78a1 1 0 0 0 0 1.41Z" />
  <path
    fill="#6D6E8F"
    d="m21.556 5.458-2.13-2.12a4 4 0 0 0-5.65 0l-2.83 2.83a3 3 0 0 0-.65 3.27 1 1 0 0 0 1.85-.76 1 1 0 0 1 .21-1.09l2.83-2.83a2 2 0 0 1 2.83 0l2.12 2.13a1.998 1.998 0 0 1 0 2.83l-2.83 2.81a1 1 0 0 1-1.09.22 1 1 0 0 0-.76 1.85 3 3 0 0 0 3.27-.65l2.83-2.83a4 4 0 0 0 0-5.66Z"
  />
</svg>
