<svg xmlns="http://www.w3.org/2000/svg" width="25" height="25" fill="none" viewBox="0 0 25 25">
  <g clip-path="url(#a)">
    <path
      fill="#6D6E8F"
      d="M23.137.367h-7.64a1.25 1.25 0 1 0 0 2.5h1.14a.26.26 0 0 1 .254.255.25.25 0 0 1-.033.125l-11.44 17.87a.5.5 0 0 1-.42.23h-2.86a1.25 1.25 0 0 0 0 2.5h7.64a1.25 1.25 0 1 0 0-2.5h-1.09a.26.26 0 0 1-.22-.13.27.27 0 0 1 0-.26l11.39-17.84a.499.499 0 0 1 .42-.23h2.86a1.25 1.25 0 0 0 0-2.5v-.02Z"
    />
  </g>
  <defs>
    <clipPath id="a">
      <path fill="#fff" d="M.637.117h24v24h-24z" />
    </clipPath>
  </defs>
</svg>
