<svg xmlns="http://www.w3.org/2000/svg" width="24" height="24" fill="none" viewBox="0 0 24 24">
  <g clip-path="url(#a)">
    <path
      fill="#6D6E8F"
      d="M19.45 7.5H4.55a.5.5 0 0 0-.5.54l1.28 14.14a2 2 0 0 0 2 1.82h9.34a2 2 0 0 0 2-1.82L20 8a.5.5 0 0 0-.5-.54l-.05.04Zm-9.2 13a.75.75 0 1 1-1.5 0v-9a.75.75 0 1 1 1.5 0v9Zm5 0a.75.75 0 1 1-1.5 0v-9a.75.75 0 0 1 1.5 0v9ZM22 4h-4.75a.25.25 0 0 1-.25-.25V2.5A2.5 2.5 0 0 0 14.5 0h-5A2.5 2.5 0 0 0 7 2.5v1.25a.25.25 0 0 1-.25.25H2a1 1 0 0 0 0 2h20a1 1 0 1 0 0-2ZM9 3.75V2.5a.5.5 0 0 1 .5-.5h5a.5.5 0 0 1 .5.5v1.25a.25.25 0 0 1-.25.25h-5.5A.25.25 0 0 1 9 3.75Z"
    />
  </g>
  <defs>
    <clipPath id="a">
      <path fill="#fff" d="M0 0h24v24H0z" />
    </clipPath>
  </defs>
</svg>
