<svg xmlns="http://www.w3.org/2000/svg" width="24" height="24" fill="none" viewBox="0 0 24 24">
  <path
    fill="#6D6E8F"
    d="M22.61.16a.51.51 0 0 0-.55.11l-2.59 2.59a.24.24 0 0 1-.29.05 12.54 12.54 0 0 0-13 .86 12.25 12.25 0 0 0-.08 19.86c.212.155.468.239.73.24a1.22 1.22 0 0 0 1-.51 1.25 1.25 0 0 0-.27-1.75 9.74 9.74 0 0 1 .1-15.8 10 10 0 0 1 9.46-1.1.26.26 0 0 1 .16.18.25.25 0 0 1-.07.22L15.37 7a.49.49 0 0 0-.11.55.5.5 0 0 0 .46.31h6.7a.51.51 0 0 0 .5-.5V.62a.51.51 0 0 0-.31-.46Z"
  />
</svg>
