<svg xmlns="http://www.w3.org/2000/svg" width="24" height="24" fill="none" viewBox="0 0 24 24">
  <g clip-path="url(#a)">
    <path
      fill="#6D6E8F"
      d="M9.08 16.65a.24.24 0 0 1 0-.35l5.59-5.59a1.004 1.004 0 1 0-1.42-1.42l-5.59 5.59a.24.24 0 0 1-.35 0L1.72 9.29A1.004 1.004 0 0 0 .3 10.71l5.59 5.59a.24.24 0 0 1 0 .35L.3 22.24a1 1 0 0 0 .325 1.639 1 1 0 0 0 1.095-.219l5.59-5.6a.26.26 0 0 1 .35 0l5.64 5.65a1.001 1.001 0 0 0 1.639-.325 1 1 0 0 0-.22-1.095L9.08 16.65ZM23 10.35h-2.59a.25.25 0 0 1-.22-.13.24.24 0 0 1 0-.26l3.13-4.48A3.47 3.47 0 1 0 17 3.32a1.001 1.001 0 0 0 2 0A1.47 1.47 0 0 1 20.52 2a1.46 1.46 0 0 1 1.18 2.34l-4.51 6.44a1 1 0 0 0 .81 1.57h5a1 1 0 0 0 0-2Z"
    />
  </g>
  <defs>
    <clipPath id="a">
      <path fill="#fff" d="M0 0h24v24H0z" />
    </clipPath>
  </defs>
</svg>
