<svg xmlns="http://www.w3.org/2000/svg" width="25" height="25" fill="none" viewBox="0 0 25 25">
  <g clip-path="url(#a)">
    <path
      fill="#6D6E8F"
      d="M18.407 20.602h-.57a.24.24 0 0 1-.23-.17l-6.13-17.82a1.46 1.46 0 0 0-1.38-1 1.49 1.49 0 0 0-1.39 1l-6.07 17.82a.25.25 0 0 1-.23.17h-.57a1 1 0 1 0 0 2h3a1 1 0 0 0 1-1 .94.94 0 0 0-.81-.95.3.3 0 0 1-.17-.12.28.28 0 0 1 0-.2l1.5-4.42a.25.25 0 0 1 .24-.16h7.23a.25.25 0 0 1 .23.16l1.5 4.42a.229.229 0 0 1 0 .2.3.3 0 0 1-.17.12 1 1 0 0 0-.79.95 1 1 0 0 0 1 1h3a1 1 0 0 0 0-2h-.19Zm-11.09-6.83a.26.26 0 0 1-.2-.1.24.24 0 0 1 0-.23l2.72-8.15a.26.26 0 0 1 .26-.2.26.26 0 0 1 .23.17l2.78 8.15a.27.27 0 0 1 0 .23.261.261 0 0 1-.2.1l-5.59.03Z"
    />
    <path
      fill="#6D6E8F"
      d="M23.837 20.602h-.2a.24.24 0 0 1-.23-.17l-4.26-12.45a1.53 1.53 0 0 0-2.89 0l-1.16 3.39a1 1 0 0 0 1.86.63l.51-1.51a.26.26 0 0 1 .23-.17.26.26 0 0 1 .24.17l1.46 4.29a.22.22 0 0 1 0 .22.24.24 0 0 1-.2.11h-1.36a1 1 0 1 0 0 2h2.2a.25.25 0 0 1 .23.16l1.1 3.21a.27.27 0 0 1-.12.3.999.999 0 0 0-.52.85 1 1 0 0 0 1 1h2.11a1 1 0 0 0 0-2v-.03Z"
    />
  </g>
  <defs>
    <clipPath id="a">
      <path fill="#fff" d="M.837.092h24v24h-24z" />
    </clipPath>
  </defs>
</svg>
