<svg xmlns="http://www.w3.org/2000/svg" width="24" height="24" fill="none" viewBox="0 0 24 24">
  <g clip-path="url(#a)">
    <path
      fill="#6D6E8F"
      d="M24 3a3 3 0 0 0-3-3H3a3 3 0 0 0-3 3v18a3 3 0 0 0 3 3h18a3 3 0 0 0 3-3V3Zm-2 18a1 1 0 0 1-1 1H3a1 1 0 0 1-1-1V3a1 1 0 0 1 1-1h18a1 1 0 0 1 1 1v18Z"
    />
    <path
      fill="#6D6E8F"
      d="M4 8a2 2 0 0 0 2 2h3a3 3 0 1 0 0-6 3 3 0 0 0-2.76 1.84A.25.25 0 0 1 6 6a1.93 1.93 0 0 0-1.13.35A2 2 0 0 0 4 8Zm.27 12.22a.5.5 0 0 1-.39-.81l2.79-3.63a1.86 1.86 0 0 1 2.66-.2l1.85 2.27a.511.511 0 0 0 .632.117.49.49 0 0 0 .168-.157l2.89-4.24a1.55 1.55 0 0 1 2.73.09l2.92 5.84a.48.48 0 0 1-.42.72H4.27Z"
    />
  </g>
  <defs>
    <clipPath id="a">
      <path fill="#fff" d="M0 0h24v24H0z" />
    </clipPath>
  </defs>
</svg>
