<svg xmlns="http://www.w3.org/2000/svg" width="24" height="24" fill="none" viewBox="0 0 24 24">
  <path
    fill="#6D6E8F"
    d="M12 .5A4.51 4.51 0 0 0 7.5 5v3.13a1 1 0 0 0 2 0V5a2.5 2.5 0 0 1 5 0v5.5A2.5 2.5 0 0 1 12 13a1 1 0 0 0 0 2 4.51 4.51 0 0 0 4.5-4.5V5A4.51 4.51 0 0 0 12 .5Z"
  />
  <path
    fill="#6D6E8F"
    d="M15.5 15.63a1 1 0 0 0-1 1V19a2.5 2.5 0 0 1-5 0v-5a2.5 2.5 0 0 1 2.5-2.5 1 1 0 0 0 0-2A4.51 4.51 0 0 0 7.5 14v5a4.5 4.5 0 1 0 9 0v-2.37a1 1 0 0 0-1-1ZM5.24 6.88l-1.3-.75a1.003 1.003 0 1 0-1 1.74l1.3.75a1 1 0 0 0 1.36-.37 1 1 0 0 0-.36-1.37ZM4 12.5a1 1 0 0 0 0-2H2.5a1 1 0 0 0 0 2H4Zm.24 1.88-1.3.75a1.003 1.003 0 1 0 1 1.74l1.3-.75a1.003 1.003 0 1 0-1-1.74Zm15.02-5.63a1 1 0 0 0 .5-.13l1.3-.75a1.003 1.003 0 1 0-1-1.74l-1.3.75a1 1 0 0 0 .5 1.87Zm2.24 1.75H20a1 1 0 0 0 0 2h1.5a1 1 0 0 0 0-2Zm-.44 4.63-1.3-.75a1.003 1.003 0 0 0-1 1.74l1.3.75a1.004 1.004 0 0 0 1-1.74Z"
  />
</svg>
