<svg xmlns="http://www.w3.org/2000/svg" width="24" height="24" fill="none" viewBox="0 0 24 24">
  <g clip-path="url(#a)">
    <path
      fill="#6D6E8F"
      d="M0 4a2.5 2.5 0 1 0 5 0 2.5 2.5 0 0 0-5 0Zm8.5 1H23a1 1 0 1 0 0-2H8.5a1 1 0 0 0 0 2ZM0 12a2.5 2.5 0 1 0 5 0 2.5 2.5 0 0 0-5 0Zm23-1H8.5a1 1 0 0 0 0 2H23a1 1 0 0 0 0-2ZM0 20a2.5 2.5 0 1 0 5 0 2.5 2.5 0 0 0-5 0Zm23-1H8.5a1 1 0 0 0 0 2H23a1 1 0 0 0 0-2Z"
    />
  </g>
  <defs>
    <clipPath id="a">
      <path fill="#fff" d="M0 0h24v24H0z" />
    </clipPath>
  </defs>
</svg>
