<svg xmlns="http://www.w3.org/2000/svg" width="24" height="24" fill="none" viewBox="0 0 24 24">
  <g clip-path="url(#a)">
    <path
      fill="#6D6E8F"
      d="M22.5 23.27h-21a1.25 1.25 0 0 1 0-2.5h21a1.25 1.25 0 0 1 0 2.5ZM19.64 3.23H1.5a1.25 1.25 0 1 1 0-2.5h18.14a1.25 1.25 0 1 1 0 2.5Zm-3.82 6.68H1.5a1.25 1.25 0 1 1 0-2.5h14.32a1.25 1.25 0 0 1 0 2.5Zm2.86 6.68H1.5a1.25 1.25 0 0 1 0-2.5h17.18a1.25 1.25 0 0 1 0 2.5Z"
    />
  </g>
  <defs>
    <clipPath id="a">
      <path fill="#fff" d="M0 0h24v24H0z" />
    </clipPath>
  </defs>
</svg>
