<svg xmlns="http://www.w3.org/2000/svg" width="24" height="24" fill="none" viewBox="0 0 24 24">
  <path
    stroke="#6D6E8F"
    stroke-linecap="round"
    stroke-linejoin="round"
    stroke-width="1.5"
    d="M9 17.25H2.25a1.5 1.5 0 0 1-1.5-1.5v-12a1.5 1.5 0 0 1 1.5-1.5h13.5a1.5 1.5 0 0 1 1.5 1.5V8M.75 6.75h16.5m-12-3v-3m7.5 3v-3"
  />
  <path stroke="#6D6E8F" stroke-width="1.5" d="M17.175 20.255a.375.375 0 0 1 0-.75m0 .75a.375.375 0 0 0 0-.75" />
  <path
    stroke="#6D6E8F"
    stroke-linecap="round"
    stroke-linejoin="round"
    stroke-width="1.5"
    d="M17.241 17.25V15m5.809 5.68a1.78 1.78 0 0 1-.06 1.73 1.799 1.799 0 0 1-1.51.84h-8.49a1.8 1.8 0 0 1-1.51-.84 1.781 1.781 0 0 1-.07-1.73l4.22-8.45a1.78 1.78 0 0 1 3.18 0l4.24 8.45Z"
  />
</svg>
