<svg xmlns="http://www.w3.org/2000/svg" width="25" height="25" fill="none" viewBox="0 0 25 25">
  <path
    stroke="#6D6E8F"
    stroke-linecap="round"
    stroke-linejoin="round"
    stroke-width="1.5"
    d="M1 13V2.5A1.5 1.5 0 0 1 2.5 1h10.629a1.5 1.5 0 0 1 1.06.44l5.872 5.871a1.5 1.5 0 0 1 .439 1.061V13"
  />
  <path
    stroke="#6D6E8F"
    stroke-linecap="round"
    stroke-linejoin="round"
    stroke-width="1.5"
    d="M20.5 8.5h-6A1.5 1.5 0 0 1 13 7V1M1 23.5V16m3 7.5V16m-3 4.5h3m4.5 3V16M7 16h3m7.5 7.5V16l-2.25 3.75L13 16v7.5m7.5-7.5v6a1.5 1.5 0 0 0 1.5 1.5h1.5"
  />
</svg>
