<svg xmlns="http://www.w3.org/2000/svg" width="24" height="25" fill="none" viewBox="0 0 24 25">
  <path
    stroke="#6D6E8F"
    stroke-linecap="round"
    stroke-linejoin="round"
    stroke-width="1.5"
    d="M22.954 22a1.5 1.5 0 0 1-1.5 1.5H3.5A1.5 1.5 0 0 1 2 22V2.5A1.5 1.5 0 0 1 3.5 1h15a1.5 1.5 0 0 1 1.047.426l2.955 2.883a1.5 1.5 0 0 1 .452 1.074V22Z"
  />
  <path
    stroke="#6D6E8F"
    stroke-linecap="round"
    stroke-linejoin="round"
    stroke-width="1.5"
    d="M6.5 7.75a2.25 2.25 0 1 0 4.5 0 2.25 2.25 0 0 0-4.5 0Zm12.79 10.7-3.925-5.888a1.011 1.011 0 0 0-1.671-.019l-2.691 3.845-1.668-1.338a1.012 1.012 0 0 0-1.474.229L5.75 18.45"
  />
</svg>
