<svg xmlns="http://www.w3.org/2000/svg" width="25" height="25" fill="none" viewBox="0 0 25 25">
  <path
    stroke="#6D6E8F"
    stroke-linecap="round"
    stroke-linejoin="round"
    stroke-width="1.5"
    d="M8.5 1h-6A1.5 1.5 0 0 0 1 2.5v6A1.5 1.5 0 0 0 2.5 10h6A1.5 1.5 0 0 0 10 8.5v-6A1.5 1.5 0 0 0 8.5 1Zm0 13.5h-6A1.5 1.5 0 0 0 1 16v6a1.5 1.5 0 0 0 1.5 1.5h6A1.5 1.5 0 0 0 10 22v-6a1.5 1.5 0 0 0-1.5-1.5ZM22 1h-6a1.5 1.5 0 0 0-1.5 1.5v6A1.5 1.5 0 0 0 16 10h6a1.5 1.5 0 0 0 1.5-1.5v-6A1.5 1.5 0 0 0 22 1Zm0 13.5h-6a1.5 1.5 0 0 0-1.5 1.5v6a1.5 1.5 0 0 0 1.5 1.5h6a1.5 1.5 0 0 0 1.5-1.5v-6a1.5 1.5 0 0 0-1.5-1.5Z"
  />
</svg>
