<svg xmlns="http://www.w3.org/2000/svg" width="25" height="25" fill="none" viewBox="0 0 25 25">
  <path
    stroke="#6D6E8F"
    stroke-linecap="round"
    stroke-linejoin="round"
    stroke-width="1.5"
    d="M22 1H2.5A1.5 1.5 0 0 0 1 2.5V4a1.5 1.5 0 0 0 1.5 1.5H22A1.5 1.5 0 0 0 23.5 4V2.5A1.5 1.5 0 0 0 22 1Zm0 9H2.5A1.5 1.5 0 0 0 1 11.5V13a1.5 1.5 0 0 0 1.5 1.5H22a1.5 1.5 0 0 0 1.5-1.5v-1.5A1.5 1.5 0 0 0 22 10Zm0 9H2.5A1.5 1.5 0 0 0 1 20.5V22a1.5 1.5 0 0 0 1.5 1.5H22a1.5 1.5 0 0 0 1.5-1.5v-1.5A1.5 1.5 0 0 0 22 19Z"
  />
</svg>
