<svg xmlns="http://www.w3.org/2000/svg" width="24" height="24" fill="none" viewBox="0 0 24 24">
  <g clip-path="url(#a)">
    <path
      stroke="#6D6E8F"
      stroke-linecap="round"
      stroke-linejoin="round"
      stroke-width="1.5"
      d="m6.75 17.249 10.5-10.5m-9.515 5.272a4.472 4.472 0 0 0-3.417 1.3l-2.25 2.25a4.5 4.5 0 1 0 6.364 6.364l2.25-2.25a4.472 4.472 0 0 0 1.3-3.417m4.283-4.292a4.472 4.472 0 0 0 3.417-1.3l2.25-2.25a4.5 4.5 0 0 0-6.364-6.364l-2.25 2.25a4.476 4.476 0 0 0-1.295 3.417"
    />
  </g>
  <defs>
    <clipPath id="a">
      <path fill="#fff" d="M0 0h24v24H0z" />
    </clipPath>
  </defs>
</svg>
