<svg xmlns="http://www.w3.org/2000/svg" width="24" height="25" fill="none" viewBox="0 0 24 25">
  <path
    stroke="#6D6E8F"
    stroke-linecap="round"
    stroke-linejoin="round"
    stroke-width="1.5"
    d="M9.5 7.75a3 3 0 1 0 6 0 3 3 0 0 0-6 0Z"
  />
  <path
    stroke="#6D6E8F"
    stroke-linecap="round"
    stroke-linejoin="round"
    stroke-width="1.5"
    d="M12.5 1a6.75 6.75 0 0 1 6.75 6.75c0 3.251-5.132 10.527-6.446 12.337a.377.377 0 0 1-.608 0C10.882 18.277 5.75 11.001 5.75 7.75A6.75 6.75 0 0 1 12.5 1Z"
  />
  <path
    stroke="#6D6E8F"
    stroke-linecap="round"
    stroke-linejoin="round"
    stroke-width="1.5"
    d="M18.479 18.034C21.211 18.575 23 19.478 23 20.5c0 1.657-4.7 3-10.5 3S2 22.157 2 20.5c0-1.02 1.781-1.921 4.5-2.463"
  />
</svg>
