<svg xmlns="http://www.w3.org/2000/svg" width="25" height="25" fill="none" viewBox="0 0 25 25">
  <path
    stroke="#6D6E8F"
    stroke-linecap="round"
    stroke-linejoin="round"
    stroke-width="1.5"
    d="M11.5 17.5a6 6 0 1 0 12 0 6 6 0 0 0-12 0Z"
  />
  <path
    stroke="#6D6E8F"
    stroke-linecap="round"
    stroke-linejoin="round"
    stroke-width="1.5"
    d="m20.174 15.756-2.905 3.873a.75.75 0 0 1-1.131.081l-1.5-1.5M8.5 16h-6A1.5 1.5 0 0 1 1 14.5v-12A1.5 1.5 0 0 1 2.5 1h18A1.5 1.5 0 0 1 22 2.5v6.75"
  />
  <path
    stroke="#6D6E8F"
    stroke-linecap="round"
    stroke-linejoin="round"
    stroke-width="1.5"
    d="m21.661 1.55-8.144 6.264a3.308 3.308 0 0 1-4.034 0L1.34 1.55"
  />
</svg>
