<svg xmlns="http://www.w3.org/2000/svg" width="24" height="24" fill="none" viewBox="0 0 24 24">
  <path
    stroke="#6D6E8F"
    stroke-linecap="round"
    stroke-linejoin="round"
    stroke-width="1.5"
    d="M21.75 4.5H2.25A1.5 1.5 0 0 0 .75 6v12a1.5 1.5 0 0 0 1.5 1.5h19.5a1.5 1.5 0 0 0 1.5-1.5V6a1.5 1.5 0 0 0-1.5-1.5Z"
  />
  <path
    stroke="#6D6E8F"
    stroke-linecap="round"
    stroke-linejoin="round"
    stroke-width="1.5"
    d="M12 15a3 3 0 1 0 0-6 3 3 0 0 0 0 6Z"
  />
  <path
    stroke="#6D6E8F"
    stroke-width="1.5"
    d="M4.5 8.625a.375.375 0 1 1 0-.75m0 .75a.375.375 0 1 0 0-.75m15 8.25a.375.375 0 0 1 0-.75m0 .75a.375.375 0 0 0 0-.75"
  />
</svg>
