<svg xmlns="http://www.w3.org/2000/svg" width="25" height="25" fill="none" viewBox="0 0 25 25">
  <path
    stroke="#6D6E8F"
    stroke-linecap="round"
    stroke-linejoin="round"
    stroke-width="1.5"
    d="M9.25 12.25a3 3 0 1 0 6 0 3 3 0 0 0-6 0Zm-7.974-.629a.855.855 0 0 0 0 1.257l3.118 2.858a.66.66 0 0 0 1.106-.484v-6a.66.66 0 0 0-1.106-.486l-3.118 2.855Zm21.947 1.257a.853.853 0 0 0 0-1.257l-3.117-2.858a.66.66 0 0 0-1.106.49v6a.658.658 0 0 0 1.105.485l3.118-2.86ZM11.622 23.223a.85.85 0 0 0 1.256 0l2.858-3.118A.659.659 0 0 0 15.25 19h-6a.66.66 0 0 0-.487 1.105l2.859 3.118Zm1.256-21.947a.852.852 0 0 0-1.256 0L8.764 4.394A.66.66 0 0 0 9.25 5.5h6a.66.66 0 0 0 .486-1.106l-2.858-3.118Z"
  />
</svg>
