<svg xmlns="http://www.w3.org/2000/svg" width="24" height="25" fill="none" viewBox="0 0 24 25">
  <path
    stroke="#6D6E8F"
    stroke-linecap="round"
    stroke-linejoin="round"
    stroke-width="1.5"
    d="M23 22a1.5 1.5 0 0 1-1.5 1.5h-18A1.5 1.5 0 0 1 2 22V2.5A1.5 1.5 0 0 1 3.5 1h15.045a1.5 1.5 0 0 1 1.048.426l2.954 2.883A1.5 1.5 0 0 1 23 5.383V22Z"
  />
  <path
    stroke="#6D6E8F"
    stroke-linecap="round"
    stroke-linejoin="round"
    stroke-width="1.5"
    d="M18.189 11.182a.75.75 0 0 0-.676-.1L14 12.25v-.75a1.5 1.5 0 0 0-1.5-1.5H8a1.5 1.5 0 0 0-1.5 1.5V16A1.5 1.5 0 0 0 8 17.5h4.5A1.5 1.5 0 0 0 14 16v-.75l3.513 1.171a.748.748 0 0 0 .987-.712v-3.918a.75.75 0 0 0-.311-.609Z"
  />
</svg>
