<svg xmlns="http://www.w3.org/2000/svg" width="24" height="24" fill="none" viewBox="0 0 24 24">
  <g clip-path="url(#a)">
    <path
      stroke="#6D6E8F"
      stroke-linecap="round"
      stroke-linejoin="round"
      stroke-width="1.5"
      d="M13.629 23.25H2.25a1.5 1.5 0 0 1-1.5-1.5v-18a1.5 1.5 0 0 1 1.5-1.5h19.5a1.5 1.5 0 0 1 1.5 1.5v9.879a1.5 1.5 0 0 1-.439 1.06l-8.122 8.122a1.5 1.5 0 0 1-1.06.439Z"
    />
    <path
      stroke="#6D6E8F"
      stroke-linecap="round"
      stroke-linejoin="round"
      stroke-width="1.5"
      d="M14.25 23.115V15.75a1.5 1.5 0 0 1 1.5-1.5h7.365M5.25.75v3m13.5-3v3"
    />
  </g>
  <defs>
    <clipPath id="a">
      <path fill="#fff" d="M0 0h24v24H0z" />
    </clipPath>
  </defs>
</svg>
