<svg xmlns="http://www.w3.org/2000/svg" width="25" height="25" fill="none" viewBox="0 0 25 25">
  <path
    stroke="#6D6E8F"
    stroke-linecap="round"
    stroke-linejoin="round"
    stroke-width="1.5"
    d="M5.5 23.5h-3A1.5 1.5 0 0 1 1 22V2.5A1.5 1.5 0 0 1 2.5 1h10.629a1.5 1.5 0 0 1 1.061.44l5.871 5.871a1.499 1.499 0 0 1 .439 1.061V13"
  />
  <path
    stroke="#6D6E8F"
    stroke-linecap="round"
    stroke-linejoin="round"
    stroke-width="1.5"
    d="M20.5 8.5h-6A1.5 1.5 0 0 1 13 7V1M8.5 23.5V16m0 0h.754a2.25 2.25 0 0 1 0 4.5h-.75m5.996 3a3 3 0 0 0 3-3V19a3 3 0 0 0-3-3v7.5Zm6 0v-6A1.5 1.5 0 0 1 22 16h1.5m-3 4.5h2.25"
  />
</svg>
