<svg xmlns="http://www.w3.org/2000/svg" width="25" height="25" fill="none" viewBox="0 0 25 25">
  <path
    stroke="#6D6E8F"
    stroke-linecap="round"
    stroke-linejoin="round"
    stroke-width="1.5"
    d="M22 1H2.5A1.5 1.5 0 0 0 1 2.5V22a1.5 1.5 0 0 0 1.5 1.5H22a1.5 1.5 0 0 0 1.5-1.5V2.5A1.5 1.5 0 0 0 22 1Z"
  />
  <path
    stroke="#6D6E8F"
    stroke-linecap="round"
    stroke-linejoin="round"
    stroke-width="1.5"
    d="M16.75 10.75a3 3 0 1 0 0-6 3 3 0 0 0 0 6ZM4.21 15.209a8.193 8.193 0 0 1 11.695 4.149"
  />
  <path
    stroke="#6D6E8F"
    stroke-linecap="round"
    stroke-linejoin="round"
    stroke-width="1.5"
    d="M14.632 17.168a4.449 4.449 0 0 1 5.851-.125"
  />
</svg>
