<svg xmlns="http://www.w3.org/2000/svg" width="25" height="25" fill="none" viewBox="0 0 25 25">
  <path
    stroke="#6D6E8F"
    stroke-linecap="round"
    stroke-linejoin="round"
    stroke-width="1.5"
    d="M16.75 1v2.25m-4.5 0h10.1a1.157 1.157 0 0 1 1.15 1.159v10.432A1.157 1.157 0 0 1 22.35 16h-7.1"
  />
  <path
    stroke="#6D6E8F"
    stroke-linecap="round"
    stroke-linejoin="round"
    stroke-width="1.5"
    d="m13.89 9.975 1.827-1.825a.578.578 0 0 1 .816 0l1.417 1.419a.578.578 0 0 0 .816 0l2.437-2.437M16.75 16v5.25m0 0-3 2.25m3-2.25 2.691 2.25M3.25 4a3 3 0 1 0 6 0 3 3 0 0 0-6 0Zm8.25 9.75a5.25 5.25 0 1 0-10.5 0V16h2.25L4 23.5h4.5l.75-7.5h2.25v-2.25Z"
  />
</svg>
