<svg xmlns="http://www.w3.org/2000/svg" width="24" height="24" fill="none" viewBox="0 0 24 24">
  <path
    stroke="#6D6E8F"
    stroke-linecap="round"
    stroke-linejoin="round"
    stroke-width="1.5"
    d="M6.75 5.625A1.875 1.875 0 1 1 8.625 7.5"
  />
  <path stroke="#6D6E8F" stroke-width="1.5" d="M8.625 10.5a.375.375 0 0 1 0-.75m0 .75a.375.375 0 0 0 0-.75" />
  <path
    stroke="#6D6E8F"
    stroke-linecap="round"
    stroke-linejoin="round"
    stroke-width="1.5"
    d="M17.25 2.25v4.5m-1.5-6a1.5 1.5 0 0 1 1.5 1.5m-15-1.5h13.5m-15 1.5a1.5 1.5 0 0 1 1.5-1.5m-1.5 12V2.25m1.5 12a1.5 1.5 0 0 1-1.5-1.5m4.5 1.5h-3m3 4.5v-4.5m3 2.25-3 2.25m18 0h-3v4.5l-4.5-4.5h-4.5v-9h12v9Zm-6-6v3"
  />
</svg>
