<svg xmlns="http://www.w3.org/2000/svg" width="24" height="24" fill="none" viewBox="0 0 24 24">
  <path
    stroke="#6D6E8F"
    stroke-linecap="round"
    stroke-linejoin="round"
    stroke-width="1.5"
    d="m22.68 2-2.158.24a7.5 7.5 0 0 0-4.475 2.151L6.24 14.198l4.24 4.242 9.809-9.807a7.494 7.494 0 0 0 2.151-4.475L22.68 2ZM6.24 14.198 2.618 12.99a.75.75 0 0 1-.293-1.241l.232-.232a6 6 0 0 1 6.14-1.45l1.255.418-3.712 3.713Z"
  />
  <path
    stroke="#6D6E8F"
    stroke-linecap="round"
    stroke-linejoin="round"
    stroke-width="1.5"
    d="M6.24 14.198 2.618 12.99a.75.75 0 0 1-.293-1.241l.232-.232a6 6 0 0 1 6.14-1.45l1.255.418-3.712 3.713Zm4.24 4.242 1.208 3.622a.748.748 0 0 0 1.241.293l.233-.232a6 6 0 0 0 1.449-6.14l-.416-1.25-3.715 3.707Z"
  />
  <path
    stroke="#6D6E8F"
    stroke-linecap="round"
    stroke-linejoin="round"
    stroke-width="1.5"
    d="m10.48 18.44 1.208 3.622a.748.748 0 0 0 1.241.293l.233-.232a6 6 0 0 0 1.449-6.14l-.416-1.25-3.715 3.707Zm-2.521.531a2.244 2.244 0 0 1-.659 1.591c-.878.878-5.3 2.121-5.3 2.121s1.243-4.425 2.121-5.3c.386-.387.899-.62 1.444-.655"
  />
</svg>
