<svg xmlns="http://www.w3.org/2000/svg" width="25" height="25" fill="none" viewBox="0 0 25 25">
  <path
    stroke="#6D6E8F"
    stroke-linecap="round"
    stroke-linejoin="round"
    stroke-width="1.5"
    d="M22 1H2.5A1.5 1.5 0 0 0 1 2.5V22a1.5 1.5 0 0 0 1.5 1.5H22a1.5 1.5 0 0 0 1.5-1.5V2.5A1.5 1.5 0 0 0 22 1Zm-6 10.515v-6m0 13.5v-3"
  />
  <path
    stroke="#6D6E8F"
    stroke-linecap="round"
    stroke-linejoin="round"
    stroke-width="1.5"
    d="M18.25 13.765a2.25 2.25 0 1 1-4.5 0 2.25 2.25 0 0 1 4.5 0Z"
    clip-rule="evenodd"
  />
  <path stroke="#6D6E8F" stroke-linecap="round" stroke-linejoin="round" stroke-width="1.5" d="M8.5 10.015v9" />
  <path
    stroke="#6D6E8F"
    stroke-linecap="round"
    stroke-linejoin="round"
    stroke-width="1.5"
    d="M10.75 7.765a2.25 2.25 0 1 0-4.5 0 2.25 2.25 0 0 0 4.5 0Z"
    clip-rule="evenodd"
  />
</svg>
