<svg xmlns="http://www.w3.org/2000/svg" width="25" height="25" fill="none" viewBox="0 0 25 25">
  <path
    stroke="#6D6E8F"
    stroke-linecap="round"
    stroke-linejoin="round"
    stroke-width="1.5"
    d="M12.25 23.5c6.213 0 11.25-5.037 11.25-11.25S18.463 1 12.25 1 1 6.037 1 12.25 6.037 23.5 12.25 23.5Z"
  />
  <path
    stroke="#6D6E8F"
    stroke-width="1.5"
    d="M8.5 9.625a.375.375 0 1 1 0-.75m0 .75a.375.375 0 1 0 0-.75m7.5.75a.375.375 0 0 1 0-.75m0 .75a.375.375 0 0 0 0-.75"
  />
  <path
    stroke="#6D6E8F"
    stroke-linecap="round"
    stroke-linejoin="round"
    stroke-width="1.5"
    d="M18.298 15.25a6.753 6.753 0 0 1-12.1 0"
  />
</svg>
