<svg xmlns="http://www.w3.org/2000/svg" width="25" height="25" fill="none" viewBox="0 0 25 25">
  <path
    stroke="#6D6E8F"
    stroke-linecap="round"
    stroke-linejoin="round"
    stroke-width="1.5"
    d="M16.75 1 14.5 3.25l2.25 2.25M19 7.75 21.25 10l2.25-2.25"
  />
  <path
    stroke="#6D6E8F"
    stroke-linecap="round"
    stroke-linejoin="round"
    stroke-width="1.5"
    d="M14.5 3.24h1.69a5.06 5.06 0 0 1 5.06 5.07V10M11.5 4.98H2a1 1 0 0 0-1 1v9.5a1 1 0 0 0 1 1h9.5a1 1 0 0 0 1-1v-9.5a1 1 0 0 0-1-1Z"
  />
  <path
    stroke="#6D6E8F"
    stroke-linecap="round"
    stroke-linejoin="round"
    stroke-width="1.5"
    d="M12.5 10.98h5a1 1 0 0 1 1 1v10.51a1 1 0 0 1-1 1H7a1 1 0 0 1-1-1v-6"
  />
  <path
    stroke="#6D6E8F"
    stroke-linecap="round"
    stroke-linejoin="round"
    stroke-width="1.5"
    d="M12.49 14.24h2.26a.5.5 0 0 1 .5.5v5a.5.5 0 0 1-.5.5h-5a.5.5 0 0 1-.5-.5v-3.26"
  />
</svg>
