<svg xmlns="http://www.w3.org/2000/svg" width="24" height="24" fill="none" viewBox="0 0 24 24">
  <g clip-path="url(#a)">
    <path
      stroke="#6D6E8F"
      stroke-linecap="round"
      stroke-linejoin="round"
      stroke-width="1.5"
      d="M8.25 9V7.873a.376.376 0 0 1 .375-.373h6.75a.376.376 0 0 1 .375.375V9M12 7.498v9m-1.125 0h2.25M3 15.748v-7.5M.75.748h4.5v4.5H.75v-4.5Zm0 18h4.5v4.5H.75v-4.5Zm20.25-3v-7.5M8.25 2.998h7.5m-7.5 18h7.5m3-20.25h4.5v4.5h-4.5v-4.5Zm0 18h4.5v4.5h-4.5v-4.5Z"
    />
  </g>
  <defs>
    <clipPath id="a">
      <path fill="#fff" d="M0 0h24v24H0z" />
    </clipPath>
  </defs>
</svg>
