<svg xmlns="http://www.w3.org/2000/svg" width="24" height="25" fill="none" viewBox="0 0 24 25">
  <path
    stroke="#6D6E8F"
    stroke-linecap="round"
    stroke-linejoin="round"
    stroke-width="1.5"
    d="M6.5 1A1.5 1.5 0 0 0 5 2.5v2.367a7.5 7.5 0 0 0 15 0V2.5A1.5 1.5 0 0 0 18.5 1h-12Z"
  />
  <path
    stroke="#6D6E8F"
    stroke-linecap="round"
    stroke-linejoin="round"
    stroke-width="1.5"
    d="M6.5 23.5A1.5 1.5 0 0 1 5 22v-2.367a7.5 7.5 0 0 1 15 0V22a1.5 1.5 0 0 1-1.5 1.5h-12Zm-.523-15h13.046"
  />
  <path
    stroke="#6D6E8F"
    stroke-linecap="round"
    stroke-linejoin="round"
    stroke-width="1.5"
    d="M19.048 23.397c-1.284-2.696-3.735-5.147-6.548-5.147s-5.264 2.451-6.548 5.147"
  />
</svg>
