<svg xmlns="http://www.w3.org/2000/svg" width="24" height="25" fill="none" viewBox="0 0 24 25">
  <path
    stroke="#6D6E8F"
    stroke-linecap="round"
    stroke-linejoin="round"
    stroke-width="1.5"
    d="M23 22a1.5 1.5 0 0 1-1.5 1.5h-18A1.5 1.5 0 0 1 2 22V2.5A1.5 1.5 0 0 1 3.5 1h15a1.5 1.5 0 0 1 1.047.426l3 2.883A1.5 1.5 0 0 1 23 5.383V22Z"
  />
  <path
    stroke="#6D6E8F"
    stroke-linecap="round"
    stroke-linejoin="round"
    stroke-width="1.5"
    d="M11.049 16.296a.746.746 0 0 1-1.08-.667v-5.258a.745.745 0 0 1 1.08-.667l4.414 2.629a.745.745 0 0 1 0 1.334l-4.414 2.629Z"
  />
  <path
    stroke="#6D6E8F"
    stroke-linecap="round"
    stroke-linejoin="round"
    stroke-width="1.5"
    d="M5.75 13a6.75 6.75 0 1 0 13.5 0 6.75 6.75 0 0 0-13.5 0Z"
  />
</svg>
