<svg xmlns="http://www.w3.org/2000/svg" width="25" height="25" fill="none" viewBox="0 0 25 25">
  <path
    stroke="#6D6E8F"
    stroke-linecap="round"
    stroke-linejoin="round"
    stroke-width="1.5"
    d="M12.577 7.695a2.625 2.625 0 1 0 5.25 0 2.625 2.625 0 0 0-5.25 0Zm-2.26 5.66a4.488 4.488 0 0 1 3.385-1.535h3a4.489 4.489 0 0 1 3.385 1.535"
  />
  <path
    stroke="#6D6E8F"
    stroke-linecap="round"
    stroke-linejoin="round"
    stroke-width="1.5"
    d="M7.702 17.82v-5.25l7.5 2.25v9l-7.5-2.25v-.75m15-3v-5.25l-7.5 2.25v9l7.5-2.25v-.75"
  />
  <path
    stroke="#6D6E8F"
    stroke-linecap="round"
    stroke-linejoin="round"
    stroke-width="1.5"
    d="M7.702 20.82a1.5 1.5 0 0 1 0-3h.75a.75.75 0 0 1 .75.75v1.5a.75.75 0 0 1-.75.75h-.75Zm15 0a1.5 1.5 0 0 0 0-3h-.75a.75.75 0 0 0-.75.75v1.5a.75.75 0 0 0 .75.75h.75Zm-21-15a4.5 4.5 0 1 0 9 0 4.5 4.5 0 0 0-9 0Z"
  />
  <path stroke="#6D6E8F" stroke-linecap="round" stroke-linejoin="round" stroke-width="1.5" d="M6.202 3.57v2.25h1.5" />
</svg>
