<svg xmlns="http://www.w3.org/2000/svg" width="25" height="25" fill="none" viewBox="0 0 25 25">
  <path
    stroke="#6D6E8F"
    stroke-linecap="round"
    stroke-linejoin="round"
    stroke-width="1.5"
    d="M12.25 23.5c6.213 0 11.25-5.037 11.25-11.25S18.463 1 12.25 1 1 6.037 1 12.25 6.037 23.5 12.25 23.5Z"
  />
  <path
    stroke="#6D6E8F"
    stroke-linecap="round"
    stroke-linejoin="round"
    stroke-width="1.5"
    d="m5.25 21.05 1-5.05h1.08a1.479 1.479 0 0 0 1.18-.58 1.44 1.44 0 0 0 .27-1.28l-.75-3A1.49 1.49 0 0 0 6.58 10H1.25m20-4.5h-4.08a1.49 1.49 0 0 0-1.45 1.14l-.75 3a1.44 1.44 0 0 0 .28 1.28 1.48 1.48 0 0 0 1.18.58h1.58l.78 4.75a1.5 1.5 0 0 0 1.46 1.25h2"
  />
</svg>
