<svg xmlns="http://www.w3.org/2000/svg" width="25" height="25" fill="none" viewBox="0 0 25 25">
  <path
    stroke="#6D6E8F"
    stroke-linecap="round"
    stroke-linejoin="round"
    stroke-width="1.5"
    d="M5.5 23.5h-3A1.5 1.5 0 0 1 1 22V2.5A1.5 1.5 0 0 1 2.5 1h10.629a1.5 1.5 0 0 1 1.06.439l5.872 5.872a1.5 1.5 0 0 1 .439 1.06V13"
  />
  <path
    stroke="#6D6E8F"
    stroke-linecap="round"
    stroke-linejoin="round"
    stroke-width="1.5"
    d="M20.5 8.5h-6A1.5 1.5 0 0 1 13 7V1M8.5 16l3 7.5m0-7.5-3 7.5m6-7.5v6a1.5 1.5 0 0 0 1.5 1.5h1.5m6-7.5H22a1.5 1.5 0 0 0-1.5 1.5c0 2.25 3 2.25 3 4.5a1.5 1.5 0 0 1-1.5 1.5h-1.5"
  />
</svg>
